<mxfile host="app.diagrams.net" modified="2021-11-26T02:41:29.997Z" agent="5.0 (Windows NT 10.0; Win64; x64) AppleWebKit/537.36 (KHTML, like Gecko) Chrome/96.0.4664.45 Safari/537.36" etag="P0BwqdNOMg6kOT8EXc6N" version="15.8.6" type="github">
  <diagram id="n3wHWzzNEnOycL6JPHrh" name="Page-1">
    <mxGraphModel dx="960" dy="810" grid="1" gridSize="10" guides="1" tooltips="1" connect="1" arrows="1" fold="1" page="1" pageScale="1" pageWidth="827" pageHeight="1169" math="0" shadow="0">
      <root>
        <mxCell id="0" />
        <mxCell id="1" parent="0" />
        <mxCell id="Dq-iCA1MvDMjNIlEdtV0-6" value="" style="edgeStyle=orthogonalEdgeStyle;rounded=0;orthogonalLoop=1;jettySize=auto;html=1;" parent="1" source="Dq-iCA1MvDMjNIlEdtV0-1" target="Dq-iCA1MvDMjNIlEdtV0-5" edge="1">
          <mxGeometry relative="1" as="geometry" />
        </mxCell>
        <mxCell id="IS9N2NfxWNyogtAjYb_R-6" value="" style="edgeStyle=orthogonalEdgeStyle;rounded=0;orthogonalLoop=1;jettySize=auto;html=1;" edge="1" parent="1" source="Dq-iCA1MvDMjNIlEdtV0-1" target="IS9N2NfxWNyogtAjYb_R-5">
          <mxGeometry relative="1" as="geometry" />
        </mxCell>
        <mxCell id="IS9N2NfxWNyogtAjYb_R-24" style="edgeStyle=orthogonalEdgeStyle;rounded=0;orthogonalLoop=1;jettySize=auto;html=1;" edge="1" parent="1" source="Dq-iCA1MvDMjNIlEdtV0-1" target="IS9N2NfxWNyogtAjYb_R-23">
          <mxGeometry relative="1" as="geometry" />
        </mxCell>
        <mxCell id="Dq-iCA1MvDMjNIlEdtV0-1" value="Ley de Ohm" style="rounded=1;whiteSpace=wrap;html=1;fillColor=#fff2cc;strokeColor=#d6b656;" parent="1" vertex="1">
          <mxGeometry x="430" y="40" width="160" height="40" as="geometry" />
        </mxCell>
        <mxCell id="Dq-iCA1MvDMjNIlEdtV0-4" value="Esta ley fue formulada por Georg Simon Ohm en 1827, en la obra Die galvanische Kette, basándose en evidencias empíricas." style="rounded=1;whiteSpace=wrap;html=1;fillColor=#ffe6cc;strokeColor=#d79b00;" parent="1" vertex="1">
          <mxGeometry x="630.71" y="120" width="159.29" height="80" as="geometry" />
        </mxCell>
        <mxCell id="Dq-iCA1MvDMjNIlEdtV0-5" value="Es la unidad de medida de la resistencia que oponen los materiales al paso de la corriente eléctrica&amp;nbsp;" style="whiteSpace=wrap;html=1;rounded=1;fillColor=#E1F2FF;strokeColor=#23445d;" parent="1" vertex="1">
          <mxGeometry x="430" y="120" width="160" height="80" as="geometry" />
        </mxCell>
        <mxCell id="Dq-iCA1MvDMjNIlEdtV0-8" value="Como son:" style="rounded=0;whiteSpace=wrap;html=1;" parent="1" vertex="1">
          <mxGeometry x="475" y="230" width="70" height="20" as="geometry" />
        </mxCell>
        <mxCell id="Dq-iCA1MvDMjNIlEdtV0-9" value="" style="endArrow=none;html=1;rounded=0;entryX=0.5;entryY=1;entryDx=0;entryDy=0;" parent="1" target="Dq-iCA1MvDMjNIlEdtV0-5" edge="1">
          <mxGeometry width="50" height="50" relative="1" as="geometry">
            <mxPoint x="510" y="230" as="sourcePoint" />
            <mxPoint x="510" y="200" as="targetPoint" />
          </mxGeometry>
        </mxCell>
        <mxCell id="Dq-iCA1MvDMjNIlEdtV0-10" value="" style="endArrow=none;html=1;rounded=0;entryX=0.5;entryY=1;entryDx=0;entryDy=0;" parent="1" target="Dq-iCA1MvDMjNIlEdtV0-8" edge="1">
          <mxGeometry width="50" height="50" relative="1" as="geometry">
            <mxPoint x="510" y="280" as="sourcePoint" />
            <mxPoint x="510" y="260" as="targetPoint" />
          </mxGeometry>
        </mxCell>
        <mxCell id="Dq-iCA1MvDMjNIlEdtV0-21" value="" style="edgeStyle=orthogonalEdgeStyle;rounded=0;orthogonalLoop=1;jettySize=auto;html=1;" parent="1" source="Dq-iCA1MvDMjNIlEdtV0-11" target="Dq-iCA1MvDMjNIlEdtV0-20" edge="1">
          <mxGeometry relative="1" as="geometry" />
        </mxCell>
        <mxCell id="Dq-iCA1MvDMjNIlEdtV0-11" value="Intensidad de la corriente &quot;I&quot;, en ampere (A)" style="rounded=1;whiteSpace=wrap;html=1;fillColor=#f8cecc;strokeColor=#b85450;" parent="1" vertex="1">
          <mxGeometry x="430" y="280" width="160" height="60" as="geometry" />
        </mxCell>
        <mxCell id="Dq-iCA1MvDMjNIlEdtV0-23" value="" style="edgeStyle=orthogonalEdgeStyle;rounded=0;orthogonalLoop=1;jettySize=auto;html=1;" parent="1" source="Dq-iCA1MvDMjNIlEdtV0-12" target="Dq-iCA1MvDMjNIlEdtV0-22" edge="1">
          <mxGeometry relative="1" as="geometry" />
        </mxCell>
        <mxCell id="Dq-iCA1MvDMjNIlEdtV0-12" value="Resistencia &quot;R&quot; en ohm de la carga o consumidor conectado al circuito" style="rounded=1;html=1;fillColor=#e1d5e7;strokeColor=#9673a6;whiteSpace=wrap;" parent="1" vertex="1">
          <mxGeometry x="630" y="280" width="160.7" height="70" as="geometry" />
        </mxCell>
        <mxCell id="Dq-iCA1MvDMjNIlEdtV0-19" value="" style="edgeStyle=orthogonalEdgeStyle;rounded=0;orthogonalLoop=1;jettySize=auto;html=1;" parent="1" source="Dq-iCA1MvDMjNIlEdtV0-13" target="Dq-iCA1MvDMjNIlEdtV0-18" edge="1">
          <mxGeometry relative="1" as="geometry" />
        </mxCell>
        <mxCell id="Dq-iCA1MvDMjNIlEdtV0-13" value="Tensión o voltaje, en volt (V)" style="rounded=1;whiteSpace=wrap;html=1;fillColor=#d5e8d4;strokeColor=#82b366;" parent="1" vertex="1">
          <mxGeometry x="230" y="280" width="160" height="60" as="geometry" />
        </mxCell>
        <mxCell id="Dq-iCA1MvDMjNIlEdtV0-14" value="" style="endArrow=none;html=1;rounded=0;exitX=1;exitY=0;exitDx=0;exitDy=0;" parent="1" source="Dq-iCA1MvDMjNIlEdtV0-13" edge="1">
          <mxGeometry width="50" height="50" relative="1" as="geometry">
            <mxPoint x="425" y="300" as="sourcePoint" />
            <mxPoint x="475" y="250" as="targetPoint" />
            <Array as="points" />
          </mxGeometry>
        </mxCell>
        <mxCell id="Dq-iCA1MvDMjNIlEdtV0-15" value="" style="endArrow=none;html=1;rounded=0;exitX=0;exitY=0;exitDx=0;exitDy=0;" parent="1" source="Dq-iCA1MvDMjNIlEdtV0-12" edge="1">
          <mxGeometry width="50" height="50" relative="1" as="geometry">
            <mxPoint x="495" y="300" as="sourcePoint" />
            <mxPoint x="545" y="250" as="targetPoint" />
          </mxGeometry>
        </mxCell>
        <mxCell id="Dq-iCA1MvDMjNIlEdtV0-18" value="Se conoce como la fuerza con la que los átomos ionizados de un punto atraen a los electrones de que sí existen otro punto" style="whiteSpace=wrap;html=1;rounded=1;fillColor=#d5e8d4;strokeColor=#82b366;" parent="1" vertex="1">
          <mxGeometry x="230" y="400" width="160" height="110" as="geometry" />
        </mxCell>
        <mxCell id="Dq-iCA1MvDMjNIlEdtV0-20" value="Cantidad de electrones es lo que realmente genera la corriente eléctrica que pasan por un tramo en una unidad de tiempo determinada" style="whiteSpace=wrap;html=1;rounded=1;fillColor=#f8cecc;strokeColor=#b85450;" parent="1" vertex="1">
          <mxGeometry x="430" y="400" width="160" height="110" as="geometry" />
        </mxCell>
        <mxCell id="Dq-iCA1MvDMjNIlEdtV0-22" value="Todos los elementos presentan una resistencia al paso de corrientes eléctricas por su interior. Dependiendo del material, la fuerza con la que los átomos atraen a los electrones que orbitan a su alrededor es mayor o menor" style="whiteSpace=wrap;html=1;rounded=1;fillColor=#e1d5e7;strokeColor=#9673a6;" parent="1" vertex="1">
          <mxGeometry x="624.64" y="400" width="171.43" height="150" as="geometry" />
        </mxCell>
        <mxCell id="IS9N2NfxWNyogtAjYb_R-14" style="edgeStyle=orthogonalEdgeStyle;rounded=0;orthogonalLoop=1;jettySize=auto;html=1;" edge="1" parent="1" source="IS9N2NfxWNyogtAjYb_R-5" target="IS9N2NfxWNyogtAjYb_R-9">
          <mxGeometry relative="1" as="geometry" />
        </mxCell>
        <mxCell id="IS9N2NfxWNyogtAjYb_R-99" style="edgeStyle=orthogonalEdgeStyle;rounded=0;orthogonalLoop=1;jettySize=auto;html=1;" edge="1" parent="1" source="IS9N2NfxWNyogtAjYb_R-5" target="IS9N2NfxWNyogtAjYb_R-97">
          <mxGeometry relative="1" as="geometry" />
        </mxCell>
        <mxCell id="IS9N2NfxWNyogtAjYb_R-5" value="Fórmulas" style="rounded=1;whiteSpace=wrap;html=1;fillColor=#fff2cc;strokeColor=#d6b656;" vertex="1" parent="1">
          <mxGeometry x="230" y="40" width="160" height="40" as="geometry" />
        </mxCell>
        <mxCell id="IS9N2NfxWNyogtAjYb_R-9" value="Basicas" style="swimlane;fontStyle=0;childLayout=stackLayout;horizontal=1;startSize=30;horizontalStack=0;resizeParent=1;resizeParentMax=0;resizeLast=0;collapsible=1;marginBottom=0;fillColor=#dae8fc;strokeColor=#6c8ebf;" vertex="1" parent="1">
          <mxGeometry x="230" y="120" width="160" height="120" as="geometry" />
        </mxCell>
        <mxCell id="IS9N2NfxWNyogtAjYb_R-10" value="V=I*R" style="text;strokeColor=none;fillColor=none;align=center;verticalAlign=middle;spacingLeft=4;spacingRight=4;overflow=hidden;points=[[0,0.5],[1,0.5]];portConstraint=eastwest;rotatable=0;" vertex="1" parent="IS9N2NfxWNyogtAjYb_R-9">
          <mxGeometry y="30" width="160" height="30" as="geometry" />
        </mxCell>
        <mxCell id="IS9N2NfxWNyogtAjYb_R-11" value="I=V/R" style="text;strokeColor=none;fillColor=none;align=center;verticalAlign=middle;spacingLeft=4;spacingRight=4;overflow=hidden;points=[[0,0.5],[1,0.5]];portConstraint=eastwest;rotatable=0;" vertex="1" parent="IS9N2NfxWNyogtAjYb_R-9">
          <mxGeometry y="60" width="160" height="30" as="geometry" />
        </mxCell>
        <mxCell id="IS9N2NfxWNyogtAjYb_R-12" value="R=V/I" style="text;strokeColor=none;fillColor=none;align=center;verticalAlign=middle;spacingLeft=4;spacingRight=4;overflow=hidden;points=[[0,0.5],[1,0.5]];portConstraint=eastwest;rotatable=0;" vertex="1" parent="IS9N2NfxWNyogtAjYb_R-9">
          <mxGeometry y="90" width="160" height="30" as="geometry" />
        </mxCell>
        <mxCell id="IS9N2NfxWNyogtAjYb_R-16" value="Voltios" style="swimlane;fontStyle=0;childLayout=stackLayout;horizontal=1;startSize=30;horizontalStack=0;resizeParent=1;resizeParentMax=0;resizeLast=0;collapsible=1;marginBottom=0;fillColor=#dae8fc;strokeColor=#6c8ebf;" vertex="1" parent="1">
          <mxGeometry x="30" y="480" width="160" height="120" as="geometry" />
        </mxCell>
        <mxCell id="IS9N2NfxWNyogtAjYb_R-41" value="V&amp;nbsp;= I * R" style="text;strokeColor=none;fillColor=none;align=center;verticalAlign=middle;spacingLeft=4;spacingRight=4;overflow=hidden;points=[[0,0.5],[1,0.5]];portConstraint=eastwest;rotatable=0;html=1;" vertex="1" parent="IS9N2NfxWNyogtAjYb_R-16">
          <mxGeometry y="30" width="160" height="30" as="geometry" />
        </mxCell>
        <mxCell id="IS9N2NfxWNyogtAjYb_R-40" value="V = P / I" style="text;strokeColor=none;fillColor=none;align=center;verticalAlign=middle;spacingLeft=4;spacingRight=4;overflow=hidden;points=[[0,0.5],[1,0.5]];portConstraint=eastwest;rotatable=0;" vertex="1" parent="IS9N2NfxWNyogtAjYb_R-16">
          <mxGeometry y="60" width="160" height="30" as="geometry" />
        </mxCell>
        <mxCell id="IS9N2NfxWNyogtAjYb_R-39" value="V&amp;nbsp;= √P * R" style="text;strokeColor=none;fillColor=none;align=center;verticalAlign=middle;spacingLeft=4;spacingRight=4;overflow=hidden;points=[[0,0.5],[1,0.5]];portConstraint=eastwest;rotatable=0;html=1;" vertex="1" parent="IS9N2NfxWNyogtAjYb_R-16">
          <mxGeometry y="90" width="160" height="30" as="geometry" />
        </mxCell>
        <mxCell id="IS9N2NfxWNyogtAjYb_R-25" style="edgeStyle=orthogonalEdgeStyle;rounded=0;orthogonalLoop=1;jettySize=auto;html=1;" edge="1" parent="1" source="IS9N2NfxWNyogtAjYb_R-23" target="Dq-iCA1MvDMjNIlEdtV0-4">
          <mxGeometry relative="1" as="geometry" />
        </mxCell>
        <mxCell id="IS9N2NfxWNyogtAjYb_R-23" value="Historia" style="rounded=1;whiteSpace=wrap;html=1;fillColor=#fff2cc;strokeColor=#d6b656;" vertex="1" parent="1">
          <mxGeometry x="630.7" y="40" width="159.3" height="40" as="geometry" />
        </mxCell>
        <mxCell id="IS9N2NfxWNyogtAjYb_R-43" value="Ohmios" style="swimlane;fontStyle=0;childLayout=stackLayout;horizontal=1;startSize=30;horizontalStack=0;resizeParent=1;resizeParentMax=0;resizeLast=0;collapsible=1;marginBottom=0;fillColor=#dae8fc;strokeColor=#6c8ebf;" vertex="1" parent="1">
          <mxGeometry x="30" y="360" width="160" height="120" as="geometry" />
        </mxCell>
        <mxCell id="IS9N2NfxWNyogtAjYb_R-50" value="R = P / I2" style="text;strokeColor=none;fillColor=none;align=center;verticalAlign=middle;spacingLeft=4;spacingRight=4;overflow=hidden;points=[[0,0.5],[1,0.5]];portConstraint=eastwest;rotatable=0;html=1;labelBorderColor=none;" vertex="1" parent="IS9N2NfxWNyogtAjYb_R-43">
          <mxGeometry y="30" width="160" height="30" as="geometry" />
        </mxCell>
        <mxCell id="IS9N2NfxWNyogtAjYb_R-51" value="R = V2 / P" style="text;strokeColor=none;fillColor=none;align=center;verticalAlign=middle;spacingLeft=4;spacingRight=4;overflow=hidden;points=[[0,0.5],[1,0.5]];portConstraint=eastwest;rotatable=0;html=1;" vertex="1" parent="IS9N2NfxWNyogtAjYb_R-43">
          <mxGeometry y="60" width="160" height="30" as="geometry" />
        </mxCell>
        <mxCell id="IS9N2NfxWNyogtAjYb_R-52" value="R&amp;nbsp;= V / I" style="text;strokeColor=none;fillColor=none;align=center;verticalAlign=middle;spacingLeft=4;spacingRight=4;overflow=hidden;points=[[0,0.5],[1,0.5]];portConstraint=eastwest;rotatable=0;html=1;" vertex="1" parent="IS9N2NfxWNyogtAjYb_R-43">
          <mxGeometry y="90" width="160" height="30" as="geometry" />
        </mxCell>
        <mxCell id="IS9N2NfxWNyogtAjYb_R-69" value="Vatios" style="swimlane;fontStyle=0;childLayout=stackLayout;horizontal=1;startSize=30;horizontalStack=0;resizeParent=1;resizeParentMax=0;resizeLast=0;collapsible=1;marginBottom=0;fillColor=#dae8fc;strokeColor=#6c8ebf;" vertex="1" parent="1">
          <mxGeometry x="30" y="120" width="160" height="120" as="geometry" />
        </mxCell>
        <mxCell id="IS9N2NfxWNyogtAjYb_R-70" value="P = V&lt;sup&gt;2&amp;nbsp;&lt;/sup&gt;/ R" style="text;strokeColor=none;fillColor=none;align=center;verticalAlign=middle;spacingLeft=4;spacingRight=4;overflow=hidden;points=[[0,0.5],[1,0.5]];portConstraint=eastwest;rotatable=0;labelBorderColor=none;html=1;" vertex="1" parent="IS9N2NfxWNyogtAjYb_R-69">
          <mxGeometry y="30" width="160" height="30" as="geometry" />
        </mxCell>
        <mxCell id="IS9N2NfxWNyogtAjYb_R-71" value="P = I&lt;sup&gt;2&lt;/sup&gt; *&amp;nbsp;R" style="text;strokeColor=none;fillColor=none;align=center;verticalAlign=middle;spacingLeft=4;spacingRight=4;overflow=hidden;points=[[0,0.5],[1,0.5]];portConstraint=eastwest;rotatable=0;html=1;" vertex="1" parent="IS9N2NfxWNyogtAjYb_R-69">
          <mxGeometry y="60" width="160" height="30" as="geometry" />
        </mxCell>
        <mxCell id="IS9N2NfxWNyogtAjYb_R-72" value="P = V * I" style="text;strokeColor=none;fillColor=none;align=center;verticalAlign=middle;spacingLeft=4;spacingRight=4;overflow=hidden;points=[[0,0.5],[1,0.5]];portConstraint=eastwest;rotatable=0;" vertex="1" parent="IS9N2NfxWNyogtAjYb_R-69">
          <mxGeometry y="90" width="160" height="30" as="geometry" />
        </mxCell>
        <mxCell id="IS9N2NfxWNyogtAjYb_R-82" value="Amperes" style="swimlane;fontStyle=0;childLayout=stackLayout;horizontal=1;startSize=30;horizontalStack=0;resizeParent=1;resizeParentMax=0;resizeLast=0;collapsible=1;marginBottom=0;fillColor=#dae8fc;strokeColor=#6c8ebf;" vertex="1" parent="1">
          <mxGeometry x="30" y="240" width="160" height="120" as="geometry" />
        </mxCell>
        <mxCell id="IS9N2NfxWNyogtAjYb_R-86" value="I = V / R" style="text;strokeColor=none;fillColor=none;align=center;verticalAlign=middle;spacingLeft=4;spacingRight=4;overflow=hidden;points=[[0,0.5],[1,0.5]];portConstraint=eastwest;rotatable=0;" vertex="1" parent="IS9N2NfxWNyogtAjYb_R-82">
          <mxGeometry y="30" width="160" height="30" as="geometry" />
        </mxCell>
        <mxCell id="IS9N2NfxWNyogtAjYb_R-87" value="I = P / V" style="text;strokeColor=none;fillColor=none;align=center;verticalAlign=middle;spacingLeft=4;spacingRight=4;overflow=hidden;points=[[0,0.5],[1,0.5]];portConstraint=eastwest;rotatable=0;" vertex="1" parent="IS9N2NfxWNyogtAjYb_R-82">
          <mxGeometry y="60" width="160" height="30" as="geometry" />
        </mxCell>
        <mxCell id="IS9N2NfxWNyogtAjYb_R-88" value="I = √P / R" style="text;strokeColor=none;fillColor=none;align=center;verticalAlign=middle;spacingLeft=4;spacingRight=4;overflow=hidden;points=[[0,0.5],[1,0.5]];portConstraint=eastwest;rotatable=0;html=1;" vertex="1" parent="IS9N2NfxWNyogtAjYb_R-82">
          <mxGeometry y="90" width="160" height="30" as="geometry" />
        </mxCell>
        <mxCell id="IS9N2NfxWNyogtAjYb_R-98" style="edgeStyle=orthogonalEdgeStyle;rounded=0;orthogonalLoop=1;jettySize=auto;html=1;entryX=0.5;entryY=0;entryDx=0;entryDy=0;" edge="1" parent="1" source="IS9N2NfxWNyogtAjYb_R-97" target="IS9N2NfxWNyogtAjYb_R-69">
          <mxGeometry relative="1" as="geometry" />
        </mxCell>
        <mxCell id="IS9N2NfxWNyogtAjYb_R-97" value="Fórmulas" style="rounded=1;whiteSpace=wrap;html=1;fillColor=#fff2cc;strokeColor=#d6b656;" vertex="1" parent="1">
          <mxGeometry x="30" y="40" width="160" height="40" as="geometry" />
        </mxCell>
      </root>
    </mxGraphModel>
  </diagram>
</mxfile>
